<svg width="15" height="16" viewBox="0 0 15 16" fill="none" xmlns="http://www.w3.org/2000/svg">
<g clip-path="url(#clip0_12_3674)">
<path d="M8.0853 12.1669L14.7604 5.49166C14.9149 5.33727 15 5.13118 15 4.91142C15 4.69167 14.9149 4.48557 14.7604 4.33118L14.2689 3.8396C13.9487 3.51973 13.4282 3.51973 13.1084 3.8396L7.50311 9.44492L1.89157 3.83338C1.73706 3.67899 1.53108 3.59375 1.31145 3.59375C1.09158 3.59375 0.885602 3.67899 0.730968 3.83338L0.239632 4.32496C0.0851202 4.47947 -4.77197e-08 4.68545 -5.73254e-08 4.9052C-6.69312e-08 5.12496 0.0851201 5.33105 0.239632 5.48544L6.9208 12.1669C7.0758 12.3216 7.28274 12.4066 7.50274 12.4061C7.7236 12.4066 7.93042 12.3216 8.0853 12.1669Z" fill="white"/>
</g>
<defs>
<clipPath id="clip0_12_3674">
<rect width="15" height="15" fill="white" transform="translate(15 0.5) rotate(90)"/>
</clipPath>
</defs>
</svg>
