<svg width="180" height="43" viewBox="0 0 180 43" fill="none" xmlns="http://www.w3.org/2000/svg">
<g clip-path="url(#clip0_36:315)">
<path d="M60.2543 0C58.7696 0.486087 57.2638 0.951039 55.7367 1.37372C40.4239 5.45262 24.9414 4.67066 10.9647 0L8.25 17.2878L13.7431 18.7672L18.812 9.51039C20.1694 9.78514 21.5268 10.0176 22.9054 10.229L24.4748 20.6481L30.1376 21.1342L33.5098 11.1377C34.8884 11.18 36.2882 11.18 37.6668 11.1377L41.039 21.1342L46.7018 20.6481L48.2712 10.2078C49.6286 9.99648 50.986 9.764 52.3645 9.48926L57.4335 18.7672L62.9266 17.3089L60.2543 0Z" fill="white"/>
<path d="M49.2256 21.1765L44.1567 30.4544C42.7994 30.1796 41.442 29.9472 40.0634 29.7358L38.4939 19.2955L32.81 18.8094L29.4377 28.8059C28.038 28.7637 26.6594 28.7637 25.2808 28.8059L21.9086 18.8094L16.2458 19.2955L14.6763 29.7147C13.2978 29.926 11.9404 30.1585 10.583 30.4333L5.5141 21.1765L0.0209961 22.6559L2.73574 39.9225C16.7124 35.2519 32.1949 34.4699 47.5077 38.5699C49.0348 38.9715 50.5406 39.4364 52.0252 39.9436L54.74 22.6559L49.2256 21.1765Z" fill="white"/>
<path d="M91.7921 10.7786C91.7921 10.7786 89.3319 7.56622 84.1145 7.56622C78.8759 7.56622 72.0254 10.5461 72.0254 19.972C72.0254 29.3979 78.8759 32.4623 84.1145 32.4623C89.3531 32.4623 91.0286 29.7783 91.7921 28.468C91.7921 34.1953 86.5111 36.985 79.8515 33.6881L76.861 40.134C85.4506 44.4666 98.1336 43.4732 98.1336 28.5102V8.15798H92.6829L91.7921 10.7786ZM85.4506 25.7205C83.3297 25.7205 80.1272 24.2622 80.1272 19.972C80.1272 15.6818 83.3297 14.2235 85.4506 14.2235C87.5715 14.2235 90.7741 15.6818 90.7741 19.972C90.7741 24.2622 87.5715 25.7205 85.4506 25.7205Z" fill="white"/>
<path d="M168.674 12.0255L167.359 8.1579H161.909V31.8705H169.48V19.9297C169.48 15.7873 173.086 13.843 176.882 15.3013L180.021 8.55945C172.025 5.03004 168.674 12.0255 168.674 12.0255Z" fill="white"/>
<path d="M156.31 8.15798H150.859L149.947 10.7786C149.947 10.7786 147.487 7.56622 142.269 7.56622C137.031 7.56622 130.18 11.0534 130.18 19.972C130.18 28.8061 137.031 32.4623 142.269 32.4623C148.399 32.4623 149.947 28.4679 149.947 28.4679V31.8917H156.31V28.5102V8.15798ZM143.605 25.7205C141.485 25.7205 138.282 24.2622 138.282 19.972C138.282 15.6818 141.485 14.2235 143.605 14.2235C145.726 14.2235 148.929 15.6818 148.929 19.972C148.929 24.2622 145.726 25.7205 143.605 25.7205Z" fill="white"/>
<path d="M115.249 7.03784C105.938 7.03784 101.124 13.6106 101.124 19.7606C101.124 25.9107 105.451 33.2231 114.57 33.2231C123.69 33.2231 126.787 27.2844 127.275 26.3334L122.269 23.0787C121.294 24.6426 118.897 26.4813 115.822 26.4813C113.319 26.4813 110.498 24.854 109.544 22.022H127.466C127.975 15.2802 124.56 7.03784 115.249 7.03784ZM109.905 16.8864C110.838 14.9632 112.64 13.6951 115.037 13.6951C118.537 13.6951 119.682 16.8864 119.682 16.8864H109.905Z" fill="white"/>
</g>
<defs>
<clipPath id="clip0_36:315">
<rect width="180" height="42.3529" fill="white"/>
</clipPath>
</defs>
</svg>
